<svg width="385" height="348" viewBox="0 0 385 348" fill="none" xmlns="http://www.w3.org/2000/svg">
<g clip-path="url(#clip0_91_2)">
<path d="M56.0501 88.25L57.6701 91.52L61.2901 92.05L58.6701 94.6L59.2901 98.2L56.0501 96.5L52.8201 98.2L53.4401 94.6L50.8201 92.05L54.4401 91.52L56.0501 88.25Z" fill="#EBEBEB"/>
<path d="M379.7 242.48L381.32 245.76L384.94 246.29L382.32 248.83L382.94 252.44L379.7 250.74L376.47 252.44L377.09 248.83L374.47 246.29L378.09 245.76L379.7 242.48Z" fill="#F5F5F5"/>
<path d="M315.6 337.57L317.22 340.84L320.83 341.37L318.21 343.92L318.83 347.52L315.6 345.82L312.37 347.52L312.98 343.92L310.37 341.37L313.98 340.84L315.6 337.57Z" fill="#F5F5F5"/>
<path d="M168.94 30.15L169.54 31.37L170.89 31.57C170.965 31.5798 171.036 31.6109 171.095 31.6597C171.153 31.7084 171.196 31.7727 171.219 31.8451C171.242 31.9175 171.244 31.9949 171.225 32.0684C171.206 32.1419 171.166 32.2083 171.11 32.26L170.11 33.21L170.34 34.55C170.352 34.6246 170.343 34.7009 170.314 34.7707C170.285 34.8405 170.238 34.901 170.177 34.9454C170.115 34.9899 170.043 35.0167 169.968 35.0228C169.893 35.0289 169.817 35.0141 169.75 34.98L168.55 34.34L167.35 34.98C167.283 35.0141 167.207 35.0289 167.132 35.0228C167.057 35.0167 166.984 34.9899 166.923 34.9454C166.862 34.901 166.815 34.8405 166.786 34.7707C166.757 34.7009 166.748 34.6246 166.76 34.55L166.98 33.21L165.98 32.26C165.924 32.2077 165.884 32.1404 165.865 32.0662C165.846 31.9919 165.849 31.9138 165.874 31.8412C165.898 31.7685 165.942 31.7043 166.002 31.6562C166.062 31.6081 166.134 31.5782 166.21 31.57L167.55 31.37L168.15 30.15C168.174 30.0637 168.226 29.9876 168.297 29.9334C168.368 29.8792 168.455 29.8499 168.545 29.8499C168.635 29.8499 168.722 29.8792 168.793 29.9334C168.864 29.9876 168.916 30.0637 168.94 30.15Z" fill="#EBEBEB"/>
<path d="M3.77998 322L4.37998 323.21L5.71998 323.41C5.79606 323.421 5.86766 323.452 5.92663 323.501C5.98561 323.551 6.02958 323.615 6.05355 323.688C6.07753 323.761 6.08053 323.839 6.06221 323.914C6.0439 323.989 6.00502 324.056 5.94998 324.11L4.94998 325.05L5.17998 326.39C5.19179 326.465 5.18278 326.541 5.15393 326.611C5.12509 326.681 5.07754 326.741 5.01651 326.786C4.95549 326.83 4.88337 326.857 4.80811 326.863C4.73285 326.869 4.65736 326.854 4.58998 326.82L3.38998 326.19L2.18998 326.82C2.1226 326.854 2.04712 326.869 1.97186 326.863C1.89659 326.857 1.82447 326.83 1.76345 326.786C1.70243 326.741 1.65487 326.681 1.62603 326.611C1.59718 326.541 1.58817 326.465 1.59998 326.39L1.82998 325.05L0.829983 324.11C0.77513 324.057 0.736102 323.99 0.717285 323.916C0.698468 323.842 0.700606 323.765 0.723454 323.692C0.746302 323.619 0.788956 323.554 0.846634 323.505C0.904312 323.455 0.974728 323.422 1.04998 323.41L2.38998 323.21L2.99998 322C3.0267 321.918 3.07884 321.846 3.1489 321.795C3.21897 321.744 3.30336 321.717 3.38998 321.717C3.4766 321.717 3.561 321.744 3.63106 321.795C3.70113 321.846 3.75326 321.918 3.77998 322Z" fill="#F5F5F5"/>
<path d="M30.7501 17.3L31.3501 18.52L32.7001 18.71C32.7753 18.722 32.8457 18.7548 32.9034 18.8046C32.9611 18.8544 33.0038 18.9193 33.0266 18.992C33.0495 19.0647 33.0516 19.1423 33.0328 19.2161C33.014 19.29 32.9749 19.3571 32.9201 19.41L31.9201 20.41L32.1501 21.74C32.1661 21.8155 32.1599 21.894 32.1322 21.9661C32.1046 22.0381 32.0567 22.1007 31.9943 22.1461C31.932 22.1916 31.8578 22.218 31.7807 22.2223C31.7037 22.2265 31.6271 22.2084 31.5601 22.17L30.3601 21.54L29.1601 22.17C29.0931 22.2084 29.0165 22.2265 28.9394 22.2223C28.8624 22.218 28.7882 22.1916 28.7258 22.1461C28.6635 22.1007 28.6156 22.0381 28.5879 21.9661C28.5603 21.894 28.5541 21.8155 28.5701 21.74L28.7901 20.41L27.7901 19.41C27.735 19.3565 27.6962 19.2885 27.6778 19.214C27.6595 19.1394 27.6625 19.0612 27.6865 18.9882C27.7105 18.9153 27.7545 18.8505 27.8134 18.8013C27.8724 18.7521 27.944 18.7205 28.0201 18.71L29.3601 18.52L30.0001 17.3C30.0322 17.2274 30.0847 17.1656 30.1513 17.1222C30.2179 17.0789 30.2956 17.0558 30.3751 17.0558C30.4545 17.0558 30.5323 17.0789 30.5988 17.1222C30.6654 17.1656 30.718 17.2274 30.7501 17.3Z" fill="#EBEBEB"/>
<path d="M151.816 342.544C155.767 341.611 158.214 337.653 157.281 333.702C156.349 329.751 152.39 327.304 148.439 328.237C144.489 329.169 142.042 333.128 142.974 337.079C143.907 341.029 147.865 343.476 151.816 342.544Z" fill="#F0F0F0"/>
<path d="M147.6 331.09C146.094 331.087 144.627 331.563 143.41 332.45C142.789 333.876 142.636 335.462 142.974 336.98C143.313 338.498 144.124 339.869 145.293 340.896C146.461 341.923 147.925 342.552 149.473 342.693C151.022 342.834 152.576 342.479 153.91 341.68C154.501 340.588 154.797 339.361 154.771 338.119C154.745 336.877 154.397 335.664 153.761 334.597C153.125 333.531 152.223 332.648 151.143 332.035C150.063 331.422 148.842 331.1 147.6 331.1V331.09Z" fill="#E6E6E6"/>
<path d="M90.6801 207.64H29.8301V180.17L90.6801 107.83H119.8V181.73H134.89V207.64H119.8V230.12H90.6801V207.64ZM90.6801 181.73V143.89L58.5201 181.73H90.6801Z" fill="#785FCB"/>
<path d="M145.3 169.51C145.3 146.65 149.413 130.65 157.64 121.51C165.867 112.37 178.403 107.803 195.25 107.81C203.337 107.81 209.98 108.81 215.18 110.81C219.904 112.512 224.229 115.163 227.89 118.6C230.976 121.546 233.59 124.949 235.64 128.69C237.669 132.596 239.198 136.742 240.19 141.03C242.451 150.191 243.579 159.594 243.55 169.03C243.55 190.843 239.86 206.807 232.48 216.92C225.1 227.033 212.39 232.093 194.35 232.1C184.23 232.1 176.053 230.487 169.82 227.26C163.537 223.981 158.244 219.082 154.49 213.07C151.59 208.643 149.333 202.587 147.72 194.9C146.045 186.542 145.234 178.034 145.3 169.51ZM178.44 169.59C178.44 184.923 179.79 195.38 182.49 200.96C185.19 206.54 189.113 209.343 194.26 209.37C195.893 209.388 197.514 209.082 199.028 208.469C200.542 207.856 201.919 206.949 203.08 205.8C205.573 203.42 207.407 199.66 208.58 194.52C209.753 189.38 210.34 181.38 210.34 170.52C210.34 154.56 208.987 143.83 206.28 138.33C203.573 132.83 199.513 130.083 194.1 130.09C188.58 130.09 184.58 132.893 182.1 138.5C179.62 144.107 178.4 154.47 178.44 169.59Z" fill="#785FCB"/>
<path d="M314.74 207.64H253.89V180.17L314.74 107.83H343.86V181.73H359V207.64H343.86V230.12H314.74V207.64ZM314.74 181.73V143.89L282.59 181.73H314.74Z" fill="#785FCB"/>
<path d="M84.2296 58.2701C96.3301 58.2701 106.14 48.4606 106.14 36.3601C106.14 24.2595 96.3301 14.4501 84.2296 14.4501C72.129 14.4501 62.3196 24.2595 62.3196 36.3601C62.3196 48.4606 72.129 58.2701 84.2296 58.2701Z" fill="#785FCB"/>
<path opacity="0.7" d="M84.2296 58.2701C96.3301 58.2701 106.14 48.4606 106.14 36.3601C106.14 24.2595 96.3301 14.4501 84.2296 14.4501C72.129 14.4501 62.3196 24.2595 62.3196 36.3601C62.3196 48.4606 72.129 58.2701 84.2296 58.2701Z" fill="white"/>
<path opacity="0.2" d="M76.6797 19.8301C73.6958 19.8209 70.7417 20.4233 67.9997 21.6001C64.6297 25.304 62.6294 30.0501 62.3318 35.0488C62.0341 40.0475 63.4569 44.9975 66.3635 49.0751C69.2701 53.1528 73.4853 56.1124 78.3077 57.4614C83.1302 58.8105 88.2691 58.4677 92.8697 56.4901C95.722 53.3467 97.6003 49.4428 98.2766 45.2524C98.9528 41.062 98.3979 36.7655 96.6793 32.8844C94.9606 29.0033 92.1521 25.7047 88.5947 23.3892C85.0374 21.0736 80.8843 19.8407 76.6397 19.8401L76.6797 19.8301Z" fill="#785FCB"/>
<path opacity="0.2" d="M74.4998 25.6201C74.4998 26.0157 74.3825 26.4024 74.1627 26.7313C73.9429 27.0602 73.6306 27.3165 73.2651 27.4679C72.8997 27.6192 72.4975 27.6589 72.1096 27.5817C71.7216 27.5045 71.3652 27.314 71.0855 27.0343C70.8058 26.7546 70.6154 26.3983 70.5382 26.0103C70.461 25.6223 70.5006 25.2202 70.652 24.8547C70.8034 24.4893 71.0597 24.1769 71.3886 23.9572C71.7175 23.7374 72.1042 23.6201 72.4998 23.6201C73.0302 23.6201 73.5389 23.8308 73.914 24.2059C74.289 24.581 74.4998 25.0897 74.4998 25.6201Z" fill="#785FCB"/>
<path opacity="0.2" d="M98.0596 23.6201C98.0596 24.0157 97.9423 24.4024 97.7225 24.7313C97.5028 25.0602 97.1904 25.3165 96.8249 25.4679C96.4595 25.6192 96.0573 25.6589 95.6694 25.5817C95.2814 25.5045 94.9251 25.314 94.6454 25.0343C94.3656 24.7546 94.1752 24.3983 94.098 24.0103C94.0208 23.6223 94.0604 23.2202 94.2118 22.8547C94.3632 22.4893 94.6195 22.1769 94.9484 21.9572C95.2773 21.7374 95.664 21.6201 96.0596 21.6201C96.59 21.6201 97.0987 21.8308 97.4738 22.2059C97.8489 22.581 98.0596 23.0897 98.0596 23.6201Z" fill="#785FCB"/>
<path opacity="0.2" d="M94.0598 37.9001C94.0598 38.5488 93.8674 39.183 93.507 39.7224C93.1466 40.2618 92.6343 40.6822 92.035 40.9304C91.4356 41.1787 90.7761 41.2436 90.1399 41.1171C89.5036 40.9905 88.9192 40.6781 88.4605 40.2194C88.0017 39.7607 87.6893 39.1763 87.5628 38.54C87.4362 37.9038 87.5012 37.2443 87.7494 36.6449C87.9977 36.0456 88.4181 35.5333 88.9575 35.1729C89.4969 34.8125 90.131 34.6201 90.7798 34.6201C91.6497 34.6201 92.4839 34.9657 93.0991 35.5808C93.7142 36.1959 94.0598 37.0302 94.0598 37.9001Z" fill="#785FCB"/>
<path opacity="0.2" d="M83.6396 47.2501C83.6396 48.1164 83.3828 48.9632 82.9015 49.6835C82.4202 50.4038 81.7361 50.9652 80.9358 51.2967C80.1355 51.6282 79.2548 51.715 78.4051 51.546C77.5555 51.3769 76.7751 50.9598 76.1625 50.3472C75.55 49.7347 75.1328 48.9542 74.9638 48.1046C74.7948 47.255 74.8815 46.3743 75.2131 45.574C75.5446 44.7736 76.106 44.0896 76.8262 43.6083C77.5465 43.127 78.3934 42.8701 79.2596 42.8701C80.4213 42.8701 81.5354 43.3316 82.3568 44.153C83.1782 44.9744 83.6396 46.0885 83.6396 47.2501Z" fill="#785FCB"/>
<path d="M343.899 300.646C346.339 290.31 339.937 279.953 329.601 277.513C319.265 275.073 308.907 281.475 306.468 291.811C304.028 302.148 310.43 312.505 320.766 314.945C331.103 317.384 341.46 310.983 343.899 300.646Z" fill="#785FCB"/>
<path opacity="0.3" d="M343.899 300.646C346.339 290.31 339.937 279.953 329.601 277.513C319.265 275.073 308.907 281.475 306.468 291.811C304.028 302.148 310.43 312.505 320.766 314.945C331.103 317.384 341.46 310.983 343.899 300.646Z" fill="white"/>
<path opacity="0.4" d="M337.33 281.34C333.067 280.053 328.489 280.287 324.38 282.001C320.27 283.714 316.882 286.802 314.796 290.736C312.71 294.669 312.054 299.206 312.941 303.569C313.829 307.933 316.203 311.853 319.66 314.66C321.453 315.205 323.316 315.481 325.19 315.48C329.16 315.479 333.032 314.25 336.275 311.96C339.519 309.671 341.974 306.434 343.304 302.693C344.634 298.952 344.774 294.892 343.704 291.069C342.635 287.246 340.408 283.847 337.33 281.34Z" fill="#785FCB"/>
<path d="M306.83 302C286.3 311.66 301.61 319.11 330.54 308.71C357.33 299.08 367.54 286.94 343.54 290.71C344.83 295.76 311.28 308.83 306.83 302Z" fill="#785FCB"/>
<path opacity="0.2" d="M337.1 107.83C310.21 126 275.4 150 265.79 207.64H263.74C273.09 150.64 306.63 126.07 333.53 107.83H337.1Z" fill="black"/>
<path d="M198 288.27C181 288.27 164.19 280.6 156 268.08C150.95 260.34 145.08 244.13 162.56 222.5L164.11 223.76C151.75 239.06 149.47 254.41 157.68 266.99C167.68 282.29 191.27 289.99 211.41 284.51C232.04 278.9 244.56 260.96 245.77 235.29C249.9 147.48 296.55 120.43 330.61 100.68C351.78 88.41 367.07 79.55 363.71 60.84C363.24 58.25 362.21 56.46 360.54 55.36C356.19 52.49 347.69 54.48 337.85 56.77C318.54 61.27 292.1 67.43 276.35 40.64L278.08 39.64C293.08 65.17 317.65 59.44 337.4 54.84C347.69 52.45 356.57 50.38 361.64 53.71C363.79 55.12 365.11 57.35 365.64 60.51C369.25 80.59 352.64 90.23 331.59 102.43C297.92 121.95 251.82 148.68 247.74 235.43C246.48 262.03 233.42 280.64 211.9 286.49C207.366 287.697 202.692 288.296 198 288.27Z" fill="#785FCB"/>
<path opacity="0.2" d="M198 288.27C181 288.27 164.19 280.6 156 268.08C150.95 260.34 145.08 244.13 162.56 222.5L164.11 223.76C151.75 239.06 149.47 254.41 157.68 266.99C167.68 282.29 191.27 289.99 211.41 284.51C232.04 278.9 244.56 260.96 245.77 235.29C249.9 147.48 296.55 120.43 330.61 100.68C351.78 88.41 367.07 79.55 363.71 60.84C363.24 58.25 362.21 56.46 360.54 55.36C356.19 52.49 347.69 54.48 337.85 56.77C318.54 61.27 292.1 67.43 276.35 40.64L278.08 39.64C293.08 65.17 317.65 59.44 337.4 54.84C347.69 52.45 356.57 50.38 361.64 53.71C363.79 55.12 365.11 57.35 365.64 60.51C369.25 80.59 352.64 90.23 331.59 102.43C297.92 121.95 251.82 148.68 247.74 235.43C246.48 262.03 233.42 280.64 211.9 286.49C207.366 287.697 202.692 288.296 198 288.27Z" fill="white"/>
<path d="M255.76 17C260.368 17.0266 264.945 17.7446 269.34 19.13C269.34 19.13 280.34 37.9 281.64 42.2C281.18 46.44 274.03 53.39 274.03 53.39L255.76 17Z" fill="#785FCB"/>
<path opacity="0.3" d="M255.76 17C260.368 17.0266 264.945 17.7446 269.34 19.13C269.34 19.13 280.34 37.9 281.64 42.2C281.18 46.44 274.03 53.39 274.03 53.39L255.76 17Z" fill="white"/>
<path d="M288.34 108.13C284.104 102.95 280.241 97.4767 276.78 91.75C275.94 90.3034 275.143 88.83 274.39 87.33C273.96 86.48 273.55 85.63 273.15 84.77C272.625 83.9332 272.218 83.028 271.94 82.08C270.74 69.41 275.08 60.08 270.94 49.91L254.46 56.35C254.46 56.35 255.86 74.47 259.06 85.35C261.06 92.08 265.54 97.9 269.87 103.29C271.22 104.97 272.52 106.7 273.87 108.39C275.22 110.08 276.58 111.45 277.87 113.04C279.82 115.45 280.46 117.76 278.99 120.6L278.74 121.05C278.32 121.79 280.28 122.63 281.52 121.05C283.52 118.47 283.24 118.63 284.98 116.43C286.04 115.1 287.25 113.65 288.3 112.43C288.806 111.83 289.088 111.072 289.095 110.287C289.102 109.502 288.835 108.739 288.34 108.13Z" fill="#785FCB"/>
<path opacity="0.7" d="M288.34 108.13C284.104 102.95 280.241 97.4767 276.78 91.75C275.94 90.3034 275.143 88.83 274.39 87.33C273.96 86.48 273.55 85.63 273.15 84.77C272.625 83.9332 272.218 83.028 271.94 82.08C270.74 69.41 275.08 60.08 270.94 49.91L254.46 56.35C254.46 56.35 255.86 74.47 259.06 85.35C261.06 92.08 265.54 97.9 269.87 103.29C271.22 104.97 272.52 106.7 273.87 108.39C275.22 110.08 276.58 111.45 277.87 113.04C279.82 115.45 280.46 117.76 278.99 120.6L278.74 121.05C278.32 121.79 280.28 122.63 281.52 121.05C283.52 118.47 283.24 118.63 284.98 116.43C286.04 115.1 287.25 113.65 288.3 112.43C288.806 111.83 289.088 111.072 289.095 110.287C289.102 109.502 288.835 108.739 288.34 108.13Z" fill="white"/>
<path opacity="0.3" d="M284.31 102.92C281.695 105.723 278.792 108.244 275.65 110.44C276.08 110.92 276.5 111.44 276.93 111.9C280.076 109.775 282.933 107.25 285.43 104.39L284.31 102.92Z" fill="#785FCB"/>
<path opacity="0.3" d="M288.34 108.13L288.22 107.99C287.451 108.873 287.003 109.99 286.95 111.16C286.886 111.962 287.016 112.769 287.33 113.51L288.28 112.38C288.777 111.786 289.054 111.04 289.065 110.266C289.076 109.492 288.82 108.738 288.34 108.13Z" fill="#785FCB"/>
<path d="M251.84 29C250.054 31.6752 247.91 34.0941 245.47 36.19C244.117 37.3564 242.634 38.363 241.05 39.19C240.218 39.6164 239.356 39.9807 238.47 40.28L237.79 40.5L237.57 40.56L237.1 40.69C236.811 40.7587 236.517 40.8055 236.22 40.83C235.376 40.8946 234.528 40.8168 233.71 40.6C232.679 40.3073 231.69 39.8803 230.77 39.33C230.03 38.8972 229.312 38.4266 228.62 37.92C227.37 36.9901 226.174 35.9884 225.04 34.92C222.853 32.8475 220.845 30.5927 219.04 28.18C218.692 27.71 218.52 27.1334 218.552 26.5497C218.584 25.9659 218.819 25.4117 219.216 24.9826C219.613 24.5536 220.147 24.2765 220.727 24.1994C221.306 24.1222 221.895 24.2498 222.39 24.56H222.47C224.83 26.06 227.21 27.64 229.53 29.05C230.71 29.74 231.85 30.4401 232.98 30.9801C233.496 31.2501 234.027 31.4905 234.57 31.7C234.909 31.8495 235.271 31.9375 235.64 31.96C235.7 31.96 235.64 31.89 235.27 31.9C235.154 31.8931 235.037 31.8931 234.92 31.9L234.7 31.95L235.03 31.78C235.475 31.541 235.905 31.2772 236.32 30.99C237.215 30.3592 238.052 29.6497 238.82 28.87C240.567 27.0392 242.203 25.1058 243.72 23.08C244.551 22.1503 245.7 21.5647 246.94 21.438C248.181 21.3113 249.424 21.6527 250.425 22.3953C251.427 23.1379 252.115 24.228 252.355 25.4517C252.594 26.6755 252.368 27.9446 251.72 29.01L251.84 29Z" fill="#785FCB"/>
<path opacity="0.7" d="M251.84 29C250.054 31.6752 247.91 34.0941 245.47 36.19C244.117 37.3564 242.634 38.363 241.05 39.19C240.218 39.6164 239.356 39.9807 238.47 40.28L237.79 40.5L237.57 40.56L237.1 40.69C236.811 40.7587 236.517 40.8055 236.22 40.83C235.376 40.8946 234.528 40.8168 233.71 40.6C232.679 40.3073 231.69 39.8803 230.77 39.33C230.03 38.8972 229.312 38.4266 228.62 37.92C227.37 36.9901 226.174 35.9884 225.04 34.92C222.853 32.8475 220.845 30.5927 219.04 28.18C218.692 27.71 218.52 27.1334 218.552 26.5497C218.584 25.9659 218.819 25.4117 219.216 24.9826C219.613 24.5536 220.147 24.2765 220.727 24.1994C221.306 24.1222 221.895 24.2498 222.39 24.56H222.47C224.83 26.06 227.21 27.64 229.53 29.05C230.71 29.74 231.85 30.4401 232.98 30.9801C233.496 31.2501 234.027 31.4905 234.57 31.7C234.909 31.8495 235.271 31.9375 235.64 31.96C235.7 31.96 235.64 31.89 235.27 31.9C235.154 31.8931 235.037 31.8931 234.92 31.9L234.7 31.95L235.03 31.78C235.475 31.541 235.905 31.2772 236.32 30.99C237.215 30.3592 238.052 29.6497 238.82 28.87C240.567 27.0392 242.203 25.1058 243.72 23.08C244.551 22.1503 245.7 21.5647 246.94 21.438C248.181 21.3113 249.424 21.6527 250.425 22.3953C251.427 23.1379 252.115 24.228 252.355 25.4517C252.594 26.6755 252.368 27.9446 251.72 29.01L251.84 29Z" fill="white"/>
<path d="M215.29 22.42L216.46 24.42C216.46 24.42 217.35 27.04 219.14 27.52L224 25.95L223.75 25.54C223.13 24.6 223.2 22.77 223.41 21.25C223.62 19.73 222.84 19.68 222.26 20.06C221.849 20.5327 221.561 21.0994 221.42 21.71C221.182 21.3797 220.917 21.0688 220.63 20.78L219.15 19.3C218.84 18.9965 218.426 18.8216 217.992 18.8105C217.558 18.7994 217.136 18.9528 216.81 19.24L215.61 20.31C215.325 20.5733 215.139 20.9255 215.081 21.3089C215.022 21.6923 215.096 22.0841 215.29 22.42Z" fill="#785FCB"/>
<path opacity="0.7" d="M215.29 22.42L216.46 24.42C216.46 24.42 217.35 27.04 219.14 27.52L224 25.95L223.75 25.54C223.13 24.6 223.2 22.77 223.41 21.25C223.62 19.73 222.84 19.68 222.26 20.06C221.849 20.5327 221.561 21.0994 221.42 21.71C221.182 21.3797 220.917 21.0688 220.63 20.78L219.15 19.3C218.84 18.9965 218.426 18.8216 217.992 18.8105C217.558 18.7994 217.136 18.9528 216.81 19.24L215.61 20.31C215.325 20.5733 215.139 20.9255 215.081 21.3089C215.022 21.6923 215.096 22.0841 215.29 22.42Z" fill="white"/>
<path d="M260.67 15.22C255.279 16.6488 250.116 18.8267 245.33 21.69C244.583 22.1572 243.998 22.8416 243.651 23.6512C243.304 24.4609 243.213 25.3572 243.39 26.22C245.32 35.66 249.71 48.3 254.45 56.35L276.56 47.2C276.71 43.3 271.34 30.68 265.87 18.48C264.89 16.29 263 14.66 260.67 15.22Z" fill="#785FCB"/>
<path opacity="0.8" d="M260.67 15.22C255.279 16.6488 250.116 18.8267 245.33 21.69C244.583 22.1572 243.998 22.8416 243.651 23.6512C243.304 24.4609 243.213 25.3572 243.39 26.22C245.32 35.66 249.71 48.3 254.45 56.35L276.56 47.2C276.71 43.3 271.34 30.68 265.87 18.48C264.89 16.29 263 14.66 260.67 15.22Z" fill="white"/>
<path opacity="0.3" d="M269.3 26.21L264.91 24.74C265.91 27.31 269.44 30.56 271.91 32.47C271.11 30.47 270.22 28.37 269.3 26.21Z" fill="#785FCB"/>
<path d="M259.22 5.32001C257.39 1.84001 253.44 0.0900121 248.7 0.480012C244.7 0.820012 241.16 4.90001 241.58 7.10001C242 9.30001 245.36 10.24 246 11L243.23 13C242.902 13.2369 242.625 13.5376 242.416 13.8843C242.207 14.2309 242.071 14.6162 242.015 15.017C241.959 15.4178 241.984 15.8258 242.09 16.2164C242.196 16.607 242.38 16.9722 242.63 17.29C243.8 18.77 245.34 20.29 246.23 21.41C253.89 21.21 259.56 18.29 261.61 15.48C260.84 11.92 261 8.78001 259.22 5.32001Z" fill="#785FCB"/>
<path opacity="0.8" d="M259.22 5.32001C257.39 1.84001 253.44 0.0900121 248.7 0.480012C244.7 0.820012 241.16 4.90001 241.58 7.10001C242 9.30001 245.36 10.24 246 11L243.23 13C242.902 13.2369 242.625 13.5376 242.416 13.8843C242.207 14.2309 242.071 14.6162 242.015 15.017C241.959 15.4178 241.984 15.8258 242.09 16.2164C242.196 16.607 242.38 16.9722 242.63 17.29C243.8 18.77 245.34 20.29 246.23 21.41C253.89 21.21 259.56 18.29 261.61 15.48C260.84 11.92 261 8.78001 259.22 5.32001Z" fill="white"/>
<path d="M255.46 7.47999C256.004 8.8746 256.122 10.3991 255.8 11.8609C255.477 13.3226 254.729 14.6559 253.648 15.6923C252.568 16.7286 251.205 17.4215 249.731 17.6833C248.258 17.9451 246.739 17.7641 245.368 17.1632C243.997 16.5623 242.835 15.5684 242.029 14.3072C241.223 13.046 240.809 11.574 240.839 10.0775C240.869 8.58089 241.342 7.12686 242.199 5.89915C243.055 4.67145 244.256 3.72519 245.65 3.17999C247.521 2.45102 249.606 2.4944 251.445 3.3006C253.284 4.10681 254.728 5.60995 255.46 7.47999Z" fill="#263238"/>
<path d="M320.39 97.5999C320.28 94.3099 320.13 94.6 320.04 91.83C319.98 90.13 319.97 88.24 319.96 86.61C319.957 85.8359 319.686 85.0866 319.194 84.489C318.702 83.8913 318.019 83.482 317.26 83.33C315.94 83.06 314.61 82.8099 313.26 82.5299C311.53 82.1599 309.82 81.7599 308.13 81.2699C306.81 80.8899 305.51 80.47 304.22 80C302.93 79.53 301.48 78.9999 300.14 78.3799C298.56 77.7099 297 76.9899 295.46 76.2399C293.73 75.4199 292.02 74.56 290.31 73.69C283.73 62.8 283.59 55.62 276.53 47.2L261.37 54.06C261.37 54.06 272.51 73.8199 280.09 82.1999C284.46 87.0199 291.31 89.1999 297.42 90.7799C301.83 91.9099 306.3 92.78 310.77 93.61C312.51 93.93 314.4 94.0499 315.9 95.0899C317.01 95.9408 317.771 97.1677 318.04 98.5399C318.107 98.8199 318.167 99.0999 318.22 99.3799C318.41 100.22 320.46 99.5799 320.39 97.5999Z" fill="#785FCB"/>
<path opacity="0.8" d="M320.39 97.5999C320.28 94.3099 320.13 94.6 320.04 91.83C319.98 90.13 319.97 88.24 319.96 86.61C319.957 85.8359 319.686 85.0866 319.194 84.489C318.702 83.8913 318.019 83.482 317.26 83.33C315.94 83.06 314.61 82.8099 313.26 82.5299C311.53 82.1599 309.82 81.7599 308.13 81.2699C306.81 80.8899 305.51 80.47 304.22 80C302.93 79.53 301.48 78.9999 300.14 78.3799C298.56 77.7099 297 76.9899 295.46 76.2399C293.73 75.4199 292.02 74.56 290.31 73.69C283.73 62.8 283.59 55.62 276.53 47.2L261.37 54.06C261.37 54.06 272.51 73.8199 280.09 82.1999C284.46 87.0199 291.31 89.1999 297.42 90.7799C301.83 91.9099 306.3 92.78 310.77 93.61C312.51 93.93 314.4 94.0499 315.9 95.0899C317.01 95.9408 317.771 97.1677 318.04 98.5399C318.107 98.8199 318.167 99.0999 318.22 99.3799C318.41 100.22 320.46 99.5799 320.39 97.5999Z" fill="white"/>
<path opacity="0.3" d="M312.7 82.4C312.1 82.27 311.5 82.14 310.89 81.99C310.94 85.45 309.32 91.41 308.73 93.22L310.63 93.58C311.875 89.9778 312.573 86.2092 312.7 82.4Z" fill="#785FCB"/>
<path opacity="0.3" d="M320 86.61C319.997 85.8374 319.728 85.0893 319.238 84.4919C318.748 83.8944 318.067 83.4841 317.31 83.33L316.31 83.14C316.471 84.2768 317.052 85.3118 317.94 86.04C318.511 86.5678 319.195 86.9577 319.94 87.18C320 87 320 86.8 320 86.61Z" fill="#785FCB"/>
<path d="M254.05 7.53996C254.45 9.05996 252.75 10.65 251.4 9.33996C250.14 7.989 248.761 6.75404 247.28 5.64996C245.89 4.77996 247.74 3.25996 249.93 3.84996C250.865 4.08473 251.728 4.54332 252.446 5.18618C253.164 5.82903 253.714 6.63686 254.05 7.53996Z" fill="white"/>
<path d="M254.16 55.86C253.46 56.12 254.74 57.32 254.74 57.32C254.74 57.32 268.74 52.53 277.24 47.6C277.261 47.3016 277.21 47.0025 277.091 46.7277C276.973 46.4529 276.791 46.2103 276.56 46.02C269.285 49.7206 261.807 53.0059 254.16 55.86Z" fill="#785FCB"/>
<path opacity="0.5" d="M254.16 55.86C253.46 56.12 254.74 57.32 254.74 57.32C254.74 57.32 268.74 52.53 277.24 47.6C277.261 47.3016 277.21 47.0025 277.091 46.7277C276.973 46.4529 276.791 46.2103 276.56 46.02C269.285 49.7206 261.807 53.0059 254.16 55.86Z" fill="white"/>
<path d="M264.46 14.56C267.22 15.96 269.81 17.43 272.46 19.06C273.75 19.88 275.03 20.71 276.3 21.61C277.57 22.51 278.83 23.43 280.1 24.47L280.57 24.86L281.16 25.4C281.512 25.7146 281.846 26.0484 282.16 26.4C282.48 26.75 282.75 27.09 283.01 27.4C283.27 27.71 283.55 28.08 283.78 28.4C284.712 29.6856 285.573 31.0209 286.36 32.4C287.91 35.0744 289.247 37.8663 290.36 40.75C290.566 41.2948 290.576 41.8941 290.39 42.4459C290.204 42.9977 289.832 43.468 289.339 43.7768C288.845 44.0855 288.259 44.2137 287.682 44.1396C287.104 44.0654 286.57 43.7935 286.17 43.37L286.12 43.31C284.12 41.18 282.19 38.94 280.25 36.85C278.31 34.76 276.34 32.64 274.71 31.71C272.44 30.3 269.91 28.89 267.4 27.51L259.84 23.31C258.668 22.6894 257.79 21.6285 257.4 20.3608C257.01 19.093 257.14 17.7223 257.76 16.55C258.381 15.3777 259.442 14.5 260.709 14.11C261.977 13.7199 263.348 13.8494 264.52 14.47L264.46 14.56Z" fill="#785FCB"/>
<path opacity="0.8" d="M264.46 14.56C267.22 15.96 269.81 17.43 272.46 19.06C273.75 19.88 275.03 20.71 276.3 21.61C277.57 22.51 278.83 23.43 280.1 24.47L280.57 24.86L281.16 25.4C281.512 25.7146 281.846 26.0484 282.16 26.4C282.48 26.75 282.75 27.09 283.01 27.4C283.27 27.71 283.55 28.08 283.78 28.4C284.712 29.6856 285.573 31.0209 286.36 32.4C287.91 35.0744 289.247 37.8663 290.36 40.75C290.566 41.2948 290.576 41.8941 290.39 42.4459C290.204 42.9977 289.832 43.468 289.339 43.7768C288.845 44.0855 288.259 44.2137 287.682 44.1396C287.104 44.0654 286.57 43.7935 286.17 43.37L286.12 43.31C284.12 41.18 282.19 38.94 280.25 36.85C278.31 34.76 276.34 32.64 274.71 31.71C272.44 30.3 269.91 28.89 267.4 27.51L259.84 23.31C258.668 22.6894 257.79 21.6285 257.4 20.3608C257.01 19.093 257.14 17.7223 257.76 16.55C258.381 15.3777 259.442 14.5 260.709 14.11C261.977 13.7199 263.348 13.8494 264.52 14.47L264.46 14.56Z" fill="white"/>
<path d="M292.73 45.74L291.88 43.61C291.88 43.61 291.41 40.89 289.72 40.13L284.72 40.92L284.89 41.36C285.35 42.36 285 44.19 284.55 45.65C284.1 47.11 284.86 47.3 285.5 47.01C285.86 46.85 286.21 46.2 286.59 45.51C286.776 45.8576 286.987 46.1918 287.22 46.51L288.45 48.2C288.707 48.5502 289.087 48.7902 289.514 48.8718C289.94 48.9535 290.382 48.8706 290.75 48.64L292.11 47.77C292.428 47.5522 292.663 47.2325 292.776 46.8637C292.888 46.4948 292.872 46.0985 292.73 45.74Z" fill="#785FCB"/>
<path opacity="0.8" d="M292.73 45.74L291.88 43.61C291.88 43.61 291.41 40.89 289.72 40.13L284.72 40.92L284.89 41.36C285.35 42.36 285 44.19 284.55 45.65C284.1 47.11 284.86 47.3 285.5 47.01C285.86 46.85 286.21 46.2 286.59 45.51C286.776 45.8576 286.987 46.1918 287.22 46.51L288.45 48.2C288.707 48.5502 289.087 48.7902 289.514 48.8718C289.94 48.9535 290.382 48.8706 290.75 48.64L292.11 47.77C292.428 47.5522 292.663 47.2325 292.776 46.8637C292.888 46.4948 292.872 46.0985 292.73 45.74Z" fill="white"/>
<path opacity="0.3" d="M260.24 26.0601L259.02 26.1601L251.53 44.2401C251.939 44.2695 252.351 44.2358 252.75 44.1401C252.75 44.1401 262.51 40.5001 265.46 39.1401C263.48 35.0501 260.24 26.0601 260.24 26.0601Z" fill="#785FCB"/>
<path d="M246.57 30.8C247.48 35.5262 249.17 40.0682 251.57 44.24C255.23 42.98 261.33 40.6 264.29 39.24C262.301 34.975 260.535 30.609 259 26.16C255.87 26.37 249 29 246.57 30.8Z" fill="white"/>
<path opacity="0.3" d="M254 34.71C253.854 35.199 253.566 35.6337 253.173 35.959C252.779 36.2843 252.298 36.4857 251.791 36.5376C251.283 36.5895 250.771 36.4897 250.32 36.2507C249.869 36.0117 249.499 35.6443 249.257 35.195C249.015 34.7457 248.911 34.2347 248.96 33.7266C249.008 33.2184 249.206 32.7361 249.529 32.3405C249.851 31.945 250.284 31.654 250.772 31.5043C251.26 31.3547 251.781 31.3532 252.27 31.5C252.925 31.6966 253.475 32.1451 253.799 32.747C254.124 33.3489 254.196 34.0549 254 34.71Z" fill="#785FCB"/>
<path opacity="0.6" d="M255.91 31.2699C255.871 31.4369 255.783 31.5881 255.656 31.7038C255.53 31.8195 255.371 31.8943 255.202 31.9183C255.032 31.9423 254.859 31.9145 254.705 31.8384C254.552 31.7623 254.425 31.6416 254.341 31.492C254.257 31.3424 254.22 31.1711 254.236 31.0003C254.251 30.8296 254.318 30.6675 254.427 30.5354C254.536 30.4032 254.683 30.3072 254.848 30.2598C255.012 30.2124 255.187 30.216 255.35 30.2699C255.553 30.3347 255.723 30.474 255.827 30.6596C255.931 30.8452 255.961 31.0633 255.91 31.2699Z" fill="#785FCB"/>
<path opacity="0.6" d="M258.15 30.4001C258.127 30.5161 258.079 30.6259 258.011 30.7225C257.943 30.8191 257.855 30.9004 257.753 30.9611C257.652 31.0218 257.538 31.0607 257.421 31.0751C257.303 31.0896 257.184 31.0793 257.071 31.0451C256.958 31.0108 256.853 30.9533 256.763 30.8761C256.673 30.799 256.601 30.7039 256.55 30.5971C256.499 30.4902 256.471 30.3739 256.467 30.2556C256.464 30.1373 256.485 30.0196 256.53 29.9101C256.562 29.8042 256.615 29.7058 256.685 29.6203C256.755 29.5349 256.841 29.4641 256.939 29.4121C257.036 29.36 257.143 29.3278 257.253 29.3171C257.363 29.3065 257.474 29.3177 257.58 29.3501C257.794 29.4149 257.974 29.5615 258.081 29.758C258.187 29.9546 258.212 30.1852 258.15 30.4001Z" fill="#785FCB"/>
<path opacity="0.5" d="M261.29 38.19L252.04 41.84L251.49 40.02L260.73 36.37L261.29 38.19Z" fill="#785FCB"/>
<path opacity="0.2" d="M210.26 177.17C210.239 182.993 209.676 188.801 208.58 194.52C207.4 199.66 205.567 203.42 203.08 205.8C201.922 206.95 200.546 207.858 199.034 208.47C197.521 209.083 195.902 209.389 194.27 209.37C189.13 209.37 185.207 206.567 182.5 200.96C182.024 199.953 181.62 198.914 181.29 197.85C175.574 202.76 170.251 208.109 165.37 213.85L160.06 220.11C162.918 223.006 166.215 225.433 169.83 227.3C176.057 230.52 184.23 232.133 194.35 232.14C196.13 232.14 197.85 232.09 199.52 231.99C205.643 222.931 210.709 213.201 214.62 202.99L229.47 164.27L210.26 177.17Z" fill="black"/>
<path d="M76.3901 230L93.8901 247.5L142.89 201.33C126 194.88 93.1601 213.19 76.3901 230Z" fill="#263238"/>
<path d="M137.42 291C131.83 285.4 119.92 273.5 119.92 273.5L166.09 224.5C172.5 241.35 154.19 274.22 137.42 291Z" fill="#263238"/>
<path d="M204.4 180.7L223.49 143.89L186.68 163C174.856 169.132 163.939 176.872 154.24 186L91.49 245.07L122.32 275.9L181.39 213.15C190.522 203.448 198.266 192.528 204.4 180.7Z" fill="#785FCB"/>
<path opacity="0.6" d="M204.4 180.7L223.49 143.89L186.68 163C174.856 169.132 163.939 176.872 154.24 186L91.49 245.07L122.32 275.9L181.39 213.15C190.522 203.448 198.266 192.528 204.4 180.7Z" fill="white"/>
<path d="M165.2 215.08C172.325 215.08 178.1 209.304 178.1 202.18C178.1 195.056 172.325 189.28 165.2 189.28C158.076 189.28 152.3 195.056 152.3 202.18C152.3 209.304 158.076 215.08 165.2 215.08Z" fill="white"/>
<path d="M165.2 210.47C169.778 210.47 173.49 206.758 173.49 202.18C173.49 197.602 169.778 193.89 165.2 193.89C160.621 193.89 156.91 197.602 156.91 202.18C156.91 206.758 160.621 210.47 165.2 210.47Z" fill="#785FCB"/>
<path opacity="0.3" d="M132.75 264.82L102.56 234.63L127.28 211.37L156.01 240.11L132.75 264.82Z" fill="#785FCB"/>
<path d="M83.22 257.62C60.62 259.45 53.13 273.92 50.57 293.15C49.27 302.96 48.69 312.89 40.46 318.63C39.9649 318.967 39.5921 319.454 39.3975 320.02C39.2029 320.587 39.1969 321.2 39.3805 321.77C39.564 322.34 39.9273 322.835 40.4157 323.181C40.9042 323.527 41.4916 323.706 42.09 323.69C72.43 322.74 86.58 307.89 88.36 301.69C87.8928 304.931 87.0574 308.108 85.87 311.16C85.6518 311.699 85.609 312.292 85.7479 312.856C85.8868 313.421 86.2002 313.927 86.6435 314.302C87.0867 314.678 87.6373 314.904 88.2166 314.949C88.796 314.993 89.3746 314.854 89.87 314.55C98.38 309.22 109.06 299.4 109.77 283.47C103.51 274.6 83.22 257.62 83.22 257.62Z" fill="#785FCB"/>
<path opacity="0.2" d="M83.22 257.62C60.62 259.45 53.13 273.92 50.57 293.15C49.27 302.96 48.69 312.89 40.46 318.63C39.9649 318.967 39.5921 319.454 39.3975 320.02C39.2029 320.587 39.1969 321.2 39.3805 321.77C39.564 322.34 39.9273 322.835 40.4157 323.181C40.9042 323.527 41.4916 323.706 42.09 323.69C72.43 322.74 86.58 307.89 88.36 301.69C87.8928 304.931 87.0574 308.108 85.87 311.16C85.6518 311.699 85.609 312.292 85.7479 312.856C85.8868 313.421 86.2002 313.927 86.6435 314.302C87.0867 314.678 87.6373 314.904 88.2166 314.949C88.796 314.993 89.3746 314.854 89.87 314.55C98.38 309.22 109.06 299.4 109.77 283.47C103.51 274.6 83.22 257.62 83.22 257.62Z" fill="white"/>
<path d="M113.28 290.3L77.0801 254.1L96.3601 249.93L117.45 271.02L113.28 290.3Z" fill="#785FCB"/>
</g>
<defs>
<clipPath id="clip0_91_2">
<rect width="385" height="348" fill="white"/>
</clipPath>
</defs>
</svg>
