<svg width="816" height="496" viewBox="0 0 816 496" fill="none" xmlns="http://www.w3.org/2000/svg">
<path opacity="0.54" d="M766.093 440.992C767.837 478.195 734.711 499.612 701.624 494.158C668.531 488.716 636.729 463.78 608.241 437.626C579.747 411.485 551.876 382.643 519.606 365.818C452.814 331.007 385.923 355.83 328.537 383.119C271.151 410.409 207.859 439.943 139.687 413.083C86.2392 392.015 41.8251 340.506 -7.81406 304.695C-94.4622 242.176 -200.353 230.609 -274.692 275.584M767.664 431.608C769.429 468.776 736.583 490.351 703.596 485.306C700.651 484.863 697.706 484.238 694.773 483.503C664.915 475.863 636.176 453.476 610.146 430.018C605.117 425.49 600.11 420.878 595.098 416.266C571.578 394.6 547.876 372.83 521.279 359.129C512.662 354.682 504.029 351.225 495.423 348.637C437.367 331.14 380.387 353.214 330.726 377.442C327.119 379.21 323.491 380.976 319.841 382.742C265.815 408.877 207.173 433.302 143.9 411.024C125.804 404.651 108.441 395.299 91.4322 383.225C71.3487 368.979 52.1597 351.323 33.2051 334.19C20.2629 322.495 7.35324 310.997 -6.02488 300.628C-12.314 295.753 -18.7286 291.143 -25.2647 286.821C-66.8694 259.282 -113.194 243.723 -157.382 240.968C-201.676 238.208 -243.879 248.043 -279.162 269.956M769.228 422.223C771.022 459.38 738.466 481.102 705.58 476.463C702.635 476.046 699.701 475.47 696.773 474.759C666.988 467.477 638.188 445.503 612.035 422.394C606.984 417.927 601.966 413.387 596.936 408.836C573.332 387.472 549.538 365.943 522.948 352.412C514.331 348.027 505.702 344.595 497.092 342.043C439.012 324.79 382.231 347.043 332.899 371.726C329.317 373.519 325.706 375.323 322.094 377.126C268.493 403.793 210.745 428.377 148.08 408.89C129.77 403.202 111.961 394.982 94.3632 382.992C73.5638 368.827 53.8881 350.209 34.8941 332.133C21.9312 319.801 9.11641 307.597 -4.23934 296.532C-10.5302 291.328 -16.9339 286.4 -23.5228 281.758C-65.4399 252.202 -113.464 235.568 -158.922 232.992C-204.477 230.399 -247.579 241.382 -283.627 264.351M770.81 412.852C772.631 449.973 740.366 471.866 707.575 467.611C704.647 467.231 701.719 466.704 698.796 466.018C669.056 459.092 640.216 437.545 613.946 414.774C608.889 410.379 603.826 405.899 598.786 401.42C575.092 380.358 551.227 359.083 524.631 345.711C516.022 341.375 507.401 337.991 498.795 335.465C440.713 318.456 384.118 340.876 335.106 366.025C331.541 367.855 327.968 369.697 324.382 371.527C271.198 398.736 214.304 423.504 152.299 406.793C133.754 401.794 115.527 394.693 97.3288 382.776C75.8046 368.702 55.6511 349.11 36.6263 330.08C23.6301 317.098 10.9314 304.19 -2.41063 292.441C-8.68191 286.908 -15.1086 281.649 -21.7377 276.699C-63.9675 245.124 -113.681 227.404 -160.409 225.007C-207.235 222.593 -251.226 234.713 -288.054 258.724M772.38 403.456C774.218 440.553 742.243 462.593 709.564 458.759C706.636 458.414 703.73 457.913 700.813 457.277C671.14 450.72 642.245 429.574 615.863 407.14C610.772 402.818 605.715 398.399 600.636 393.967C576.858 373.208 552.897 352.185 526.304 338.96C517.694 334.685 509.078 331.327 500.479 328.849C442.384 312.072 385.991 334.696 337.282 360.273C333.742 362.129 330.186 364.008 326.629 365.888C273.872 393.629 217.784 418.675 156.487 404.647C137.711 400.359 119.041 394.353 100.263 382.509C78.0018 368.514 57.3835 347.96 38.3188 327.987C25.3105 314.357 12.698 300.756 -0.634335 288.299C-6.89467 282.448 -13.3443 276.857 -20.0178 271.576C-62.5515 237.972 -113.973 219.189 -161.962 216.959C-210.05 214.712 -254.939 227.979 -292.545 253.034M773.95 394.071C775.828 431.145 744.121 453.355 711.548 449.916C708.637 449.61 705.725 449.145 702.814 448.533C673.202 442.346 644.256 421.601 617.752 399.517C612.644 395.255 607.559 390.896 602.474 386.537C578.607 366.08 554.559 345.297 527.974 332.244C519.372 328.018 510.763 324.709 502.148 322.255C444.029 305.721 387.844 328.513 339.454 354.557C335.932 356.449 332.422 358.355 328.882 360.272C276.551 388.545 221.239 413.941 160.671 402.537C141.63 398.947 122.573 394.048 103.199 382.301C80.2214 368.386 59.1163 346.872 39.9995 325.942C26.9579 311.663 14.4402 297.357 1.14298 284.216C-5.11908 278.035 -11.5578 272.127 -18.2841 266.525C-61.1298 230.903 -114.242 211.035 -163.501 208.983C-212.846 206.928 -258.639 221.319 -297.023 247.416M775.515 384.686C777.409 421.737 746.004 444.106 713.52 441.062C710.62 440.793 707.709 440.365 704.814 439.791C675.259 433.948 646.257 413.641 619.663 391.895C614.533 387.693 609.431 383.419 604.324 379.121C580.379 358.954 556.244 338.437 529.655 325.542C521.053 321.377 512.44 318.104 503.842 315.688C445.708 299.386 389.713 322.37 341.652 348.866C338.155 350.785 334.662 352.728 331.16 354.683C279.254 383.488 224.676 409.294 164.889 400.441C145.587 397.573 126.13 393.77 106.163 382.084C82.4611 368.26 60.8782 345.771 41.7305 323.887C28.6682 308.972 16.2453 293.96 2.9704 280.124C-3.27208 273.614 -9.73379 267.375 -16.513 261.453C-59.6711 223.812 -114.482 202.87 -165.003 200.985C-215.609 199.096 -262.3 214.635 -301.463 241.776M777.091 375.316C779.03 412.343 747.893 434.858 715.527 432.223C712.632 431.978 709.737 431.587 706.837 431.049C677.338 425.576 648.291 405.671 621.574 384.274C616.433 380.145 611.298 375.919 606.179 371.693C582.133 351.815 557.92 331.563 531.346 318.828C522.752 314.713 514.134 311.476 505.544 309.109C447.396 293.039 391.6 316.202 343.859 343.165C340.391 345.134 336.923 347.102 333.447 349.083C281.966 378.419 228.117 404.733 169.108 398.345C149.527 396.224 129.696 393.481 109.119 381.879C84.6936 368.147 62.6329 344.685 43.4451 321.858C30.3495 306.292 18.0341 290.588 4.76882 276.044C-1.47538 269.203 -7.92614 262.647 -14.7582 256.405C-58.22 216.734 -114.73 194.717 -166.521 193.012C-218.397 191.301 -265.979 207.977 -305.908 236.173M778.666 365.918C780.628 402.911 749.782 425.598 717.505 423.356C714.616 423.162 711.727 422.795 708.843 422.295C679.394 417.178 650.314 397.711 623.469 376.64C618.3 372.582 613.153 368.429 608.017 364.263C583.883 344.688 559.58 324.676 533.014 312.114C524.416 308.034 515.818 304.86 507.219 302.505C449.061 286.691 393.451 310.02 346.039 337.437C342.596 339.431 339.145 341.437 335.698 343.468C284.657 373.348 231.51 400.205 173.299 396.223C153.432 394.86 133.214 393.164 112.07 381.649C86.9288 367.997 64.3814 343.572 45.1542 319.802C32.0379 303.6 19.8259 287.18 6.58304 271.938C0.349754 264.781 -6.11539 257.881 -12.9877 251.333C-56.7619 209.644 -114.958 186.565 -168.023 185.014C-221.161 183.47 -269.649 201.306 -310.348 230.533M780.237 356.532C782.226 393.514 751.654 416.334 719.489 414.514C716.605 414.344 713.722 414.026 710.855 413.563C681.479 408.804 652.337 389.751 625.385 369.016C620.188 365.02 615.025 360.926 609.861 356.821C585.643 337.547 561.267 317.79 534.694 305.385C526.095 301.367 517.502 298.218 508.912 295.911C450.738 280.329 395.327 303.838 348.222 331.708C344.805 333.728 341.383 335.784 337.961 337.841C287.346 368.252 234.897 395.749 177.503 394.088C157.353 393.508 136.756 392.848 115.012 381.404C89.1456 367.844 66.1121 342.458 46.8411 317.72C33.7001 300.857 21.5871 283.756 8.35391 267.806C2.14018 260.319 -4.34797 253.089 -11.2732 246.22C-55.3511 202.501 -115.247 178.349 -169.582 176.976C-223.981 175.599 -273.38 194.57 -314.845 224.853M781.801 347.15C783.819 384.096 753.531 407.099 721.478 405.663C718.617 405.53 715.75 405.25 712.867 404.81C683.535 400.408 654.348 381.78 627.28 361.383C622.077 357.46 616.891 353.427 611.711 349.381C587.409 330.397 562.927 310.905 536.371 298.66C527.78 294.691 519.195 291.591 510.6 289.321C452.413 273.971 397.2 297.66 350.415 325.995C347.015 328.052 343.618 330.134 340.235 332.229C290.045 363.171 238.284 391.382 181.707 391.981C161.265 392.195 140.308 392.546 117.963 381.176C91.3724 367.707 67.8605 341.348 48.5588 315.655C35.3845 298.142 23.3789 280.349 10.1681 263.703C3.95267 255.885 -2.52454 248.338 -9.50263 241.148C-53.8929 195.412 -115.487 170.186 -171.092 168.991C-226.762 167.794 -277.051 187.899 -319.295 219.227M783.377 337.778C785.422 374.713 755.426 397.863 723.462 396.821C720.606 396.737 717.745 396.483 714.878 396.081C685.608 392.047 656.371 373.821 629.202 353.775C623.977 349.911 618.758 345.951 613.572 341.978C589.18 323.296 564.615 304.044 538.053 291.958C529.462 288.05 520.881 284.975 512.281 282.741C454.071 267.634 399.069 291.516 352.6 320.292C349.225 322.375 345.858 324.507 342.491 326.639C292.727 358.113 241.676 387.1 185.904 389.884C165.175 390.918 143.843 392.268 120.911 380.983C93.6037 367.593 69.6057 340.272 50.2644 313.636C37.0694 295.487 25.1586 276.989 11.9702 259.647C5.77434 251.5 -0.725886 243.622 -7.75686 236.113C-52.4594 188.357 -115.753 162.057 -172.619 161.029C-229.55 159.998 -280.738 181.253 -323.761 213.622M784.953 328.381C787.026 365.28 757.309 388.589 725.457 387.968C722.601 387.909 719.746 387.703 716.879 387.338C687.67 383.673 658.377 365.86 631.091 346.151C625.838 342.36 620.619 338.46 615.405 334.548C590.929 316.169 566.291 297.17 539.722 285.243C531.139 281.384 522.545 278.357 513.962 276.161C455.737 261.286 400.934 285.346 354.785 314.589C351.427 316.709 348.085 318.867 344.756 321.037C295.41 353.055 245.08 382.891 190.101 387.787C169.076 389.652 147.375 391.964 123.854 380.764C95.8228 367.467 71.347 339.172 51.9535 311.58C38.7251 292.781 26.9177 273.566 13.7431 255.54C7.54549 247.063 1.04352 238.855 -6.02767 231.038C-51.034 181.252 -116.026 153.879 -174.163 153.029C-232.364 152.178 -284.442 174.568 -328.23 207.994M786.523 318.996C788.624 355.884 759.192 379.34 727.429 379.113C724.591 379.091 721.741 378.91 718.88 378.594C689.726 375.274 660.389 357.887 632.991 338.516C627.715 334.785 622.479 330.97 617.255 327.106C592.689 309.029 567.951 290.283 541.401 278.515C532.826 274.706 524.24 271.728 515.653 269.568C457.426 254.937 402.8 279.177 356.98 308.873C353.659 311.031 350.335 313.227 347.031 315.423C298.111 347.972 248.51 378.707 194.303 385.652C172.999 388.385 150.916 391.648 126.794 380.52C98.0385 367.314 73.0849 338.045 53.6601 309.499C40.4198 290.052 28.6986 270.143 15.5463 251.421C9.35964 242.628 2.84734 234.101 -4.26813 225.952C-49.5868 174.148 -116.278 145.699 -175.676 145.018C-235.138 144.332 -288.115 167.871 -332.682 202.34M788.099 309.626C790.228 346.479 761.092 370.106 729.43 370.275C726.613 370.29 723.758 370.146 720.908 369.867C691.822 366.917 662.423 349.943 634.913 330.91C629.627 327.251 624.357 323.483 619.099 319.692C594.444 301.891 569.627 283.412 543.082 271.815C534.506 268.067 525.925 265.113 517.341 262.978C459.099 248.579 404.673 272.998 359.16 303.147C355.856 305.343 352.557 307.564 349.291 309.798C300.797 342.879 251.925 374.574 198.494 383.532C176.903 387.146 154.455 391.334 129.745 380.292C100.274 367.166 74.8462 336.948 55.369 307.446C42.0955 287.35 30.4818 266.749 17.3392 247.318C11.1722 238.194 4.63683 229.337 -2.53154 220.868C-48.1626 167.046 -116.544 137.511 -177.212 137.008C-237.945 136.501 -291.812 161.176 -337.157 196.688M789.664 300.241C791.821 337.082 762.964 360.843 731.414 361.433C728.592 361.485 725.753 361.378 722.908 361.124C693.867 358.53 664.435 341.971 636.813 323.299C631.504 319.701 626.223 316.006 620.948 312.275C596.21 294.776 571.315 276.55 544.764 265.112C536.197 261.413 527.623 258.509 519.035 256.411C460.77 242.255 406.542 266.854 361.358 297.457C358.08 299.678 354.818 301.937 351.561 304.221C303.492 337.832 255.383 370.562 202.704 381.447C180.85 385.967 158.004 391.068 132.693 380.098C102.497 367.064 76.5914 335.872 57.075 305.426C43.7806 284.694 32.2618 263.387 19.1416 243.261C12.9728 233.807 6.44836 224.632 -0.772878 215.843C-46.7076 159.991 -116.797 129.394 -178.727 129.058C-240.72 128.719 -295.485 154.541 -341.61 191.096M791.24 290.845C793.425 327.651 764.847 351.594 733.397 352.567C730.587 352.656 727.765 352.587 724.92 352.369C695.94 350.145 666.452 333.986 638.718 315.652C633.382 312.126 628.079 308.492 622.798 304.834C597.964 287.637 572.98 269.663 546.442 258.385C537.875 254.747 529.305 251.868 520.725 249.819C462.446 235.895 408.417 260.673 363.552 291.742C360.291 294.001 357.055 296.285 353.835 298.607C306.193 332.75 258.859 366.527 206.91 379.338C184.798 384.788 161.545 390.752 135.646 379.867C104.726 366.926 78.3421 334.76 58.7732 303.358C45.4456 281.976 34.0428 259.966 20.9363 239.156C14.7871 229.373 8.23975 219.866 0.978243 210.77C-45.2688 152.899 -117.048 121.217 -180.248 121.059C-243.512 120.899 -299.167 147.858 -346.07 185.456M792.81 281.461C795.006 318.243 766.73 342.346 735.387 343.714C732.587 343.829 729.771 343.808 726.926 343.614C698.019 341.748 668.464 326.014 640.618 308.018C635.259 304.553 629.951 300.991 624.642 297.393C599.725 280.498 574.651 262.765 548.121 251.659C539.561 248.07 530.987 245.227 522.403 243.215C464.109 229.522 410.278 254.48 365.734 286.015C362.498 288.299 359.291 290.634 356.097 292.981C308.88 327.655 262.365 362.542 211.112 377.205C188.746 383.609 165.086 390.437 138.607 379.625C106.971 366.764 80.1013 333.635 60.501 301.279C47.1529 279.261 35.845 256.545 22.7483 235.026C16.5973 224.913 10.0482 215.076 2.7338 205.66C-43.817 145.76 -117.304 113.015 -181.765 113.024C-246.291 113.031 -302.845 141.138 -350.513 179.791M794.386 272.089C796.627 308.849 768.614 333.098 737.371 334.873C734.576 335.037 731.766 335.041 728.938 334.885C700.076 333.375 670.487 318.056 642.53 300.397C637.159 297.004 631.806 293.502 626.497 289.965C601.496 273.372 576.344 255.893 549.797 244.932C541.246 241.393 532.672 238.611 524.091 236.623C465.787 223.187 412.143 248.311 367.926 280.3C364.707 282.622 361.526 284.982 358.37 287.367C311.579 322.574 265.876 358.608 215.316 375.096C192.709 382.469 168.638 390.135 141.549 379.408C109.188 366.637 81.8325 332.548 62.2015 299.236C48.8284 276.556 37.6067 253.148 24.5536 230.934C18.4135 220.503 11.8627 210.337 4.49549 200.6C-42.3804 138.669 -117.545 104.851 -183.285 105.051C-249.072 105.224 -306.525 134.479 -354.972 174.175M795.95 262.705C798.208 299.44 770.502 323.85 739.354 326.033C736.577 326.234 733.772 326.262 730.955 326.155C702.154 325.015 672.504 310.109 644.429 292.788C639.043 289.455 633.678 286.026 628.325 282.549C603.245 266.245 577.987 249.031 551.45 238.241C542.898 234.763 534.328 232.006 525.764 230.055C467.445 216.851 414.012 242.168 370.091 274.597C366.909 276.957 363.732 279.341 360.593 281.765C314.228 317.502 269.385 354.71 219.479 372.986C196.655 381.352 172.14 389.843 144.459 379.176C111.374 366.497 83.5402 331.435 63.8695 297.18C50.4632 273.851 39.3489 249.75 26.3182 226.84C20.185 216.067 13.6239 205.582 6.20374 195.526C-40.9844 131.576 -117.848 96.6842 -184.85 97.0503C-251.907 97.4027 -310.262 127.781 -359.475 168.533M797.526 253.307C799.823 290.02 772.397 314.586 741.349 317.178C738.572 317.403 735.778 317.481 732.961 317.399C704.216 316.603 674.521 302.123 646.341 285.164C640.92 281.903 635.544 278.523 630.185 275.118C605.017 259.117 579.675 242.144 553.141 231.525C544.597 228.097 536.035 225.389 527.467 223.475C469.133 210.502 415.891 236.01 372.298 268.893C369.133 271.291 365.994 273.714 362.88 276.162C316.954 312.443 272.983 350.837 223.707 370.877C200.666 380.236 175.702 389.527 147.437 378.971C113.636 366.371 85.3155 330.346 65.6013 295.124C52.1742 271.158 41.1549 246.352 28.1339 222.733C22.0117 211.643 15.4361 200.815 7.97577 190.451C-39.5161 124.472 -118.079 88.5056 -186.351 89.0508C-254.669 89.5702 -313.931 121.109 -363.914 162.892M799.097 243.924C801.404 280.612 774.257 305.338 743.327 308.313C740.572 308.576 737.767 308.69 734.973 308.646C706.29 308.219 676.533 294.152 648.246 277.519C642.803 274.318 637.411 271.022 632.029 267.678C606.76 251.967 581.357 235.259 554.819 224.799C546.275 221.432 537.717 218.748 529.144 216.871C470.787 204.141 417.752 229.817 374.479 263.166C371.34 265.589 368.218 268.05 365.141 270.536C319.632 307.361 276.571 346.979 227.899 368.756C204.66 379.146 179.234 389.223 150.377 378.728C115.852 366.221 87.0529 329.222 67.299 293.057C53.8389 268.442 42.9354 242.932 29.9281 218.628C23.8169 207.221 17.2397 196.063 9.72641 185.379C-38.0778 117.382 -118.327 80.3535 -187.873 81.0529C-257.461 81.7505 -317.614 114.425 -368.375 157.251M800.672 234.551C803.025 271.217 776.157 296.102 745.322 299.484C742.562 299.783 739.785 299.923 736.996 299.928C708.374 299.87 678.573 286.205 650.163 269.921C644.709 266.794 639.283 263.545 633.89 260.273C608.531 244.864 583.044 228.398 556.512 218.11C547.977 214.792 539.414 212.144 530.85 210.316C472.478 197.818 419.633 223.686 376.689 257.489C373.566 259.949 370.482 262.448 367.431 264.96C322.348 302.316 280.236 343.196 232.13 366.672C208.712 378.093 182.811 388.946 153.345 378.535C118.082 366.106 88.8187 328.147 69.0257 291.038C55.5533 265.775 44.7359 239.571 31.7384 214.559C25.6339 202.811 19.0463 191.333 11.4802 180.33C-36.6364 110.314 -118.576 72.2001 -189.392 73.0783C-260.242 73.9429 -321.293 107.765 -372.821 151.648M802.237 225.166C804.606 261.808 778.041 286.851 747.295 290.629C744.551 290.966 741.779 291.155 738.985 291.172C710.408 291.471 680.562 278.231 652.046 262.273C646.575 259.206 641.127 256.042 635.723 252.819C610.286 237.699 584.693 221.498 558.177 211.369C549.642 208.112 541.096 205.502 532.527 203.711C474.154 191.457 421.494 217.491 378.871 251.76C375.773 254.246 372.705 256.781 369.684 259.344C325.027 297.232 283.871 339.363 236.314 364.561C212.735 377.052 186.335 388.653 156.289 378.316C120.31 365.967 90.5599 327.046 70.7144 288.981C57.2086 263.068 46.4991 236.172 33.5239 210.465C27.4305 198.398 20.8326 186.603 13.2221 175.267C-35.1982 103.222 -118.845 64.0454 -190.923 65.0906C-263.03 66.1467 -324.984 101.092 -377.29 146.018M803.813 215.771C806.221 252.391 779.918 277.58 749.295 281.766C746.568 282.14 743.791 282.366 741.014 282.419C712.509 283.076 682.602 270.25 653.98 254.654C648.486 251.646 643.016 248.543 637.584 245.392C612.058 230.575 586.386 214.626 559.87 204.657C551.341 201.448 542.79 198.876 534.217 197.12C475.821 185.111 423.368 211.312 381.064 246.047C377.984 248.57 374.954 251.144 371.958 253.732C327.727 292.151 287.566 335.571 240.516 362.429C216.783 375.977 189.863 388.327 159.228 378.074C122.525 365.818 92.2973 325.922 72.421 286.903C58.8945 260.353 48.2794 232.752 35.3266 206.349C29.24 193.94 22.6318 181.827 14.9685 170.171C-33.7641 96.1067 -119.102 55.8449 -192.449 57.0688C-265.818 58.2917 -328.67 94.3857 -381.755 140.354M805.383 206.388C807.803 242.984 781.807 268.332 751.262 272.914C748.535 273.324 745.786 273.575 742.992 273.677C714.538 274.69 684.58 262.29 655.846 247.032C650.336 244.109 644.854 241.054 639.395 237.964C613.784 223.448 588.029 207.74 561.502 197.93C552.984 194.771 544.433 192.258 535.872 190.516C477.461 178.738 425.199 205.131 383.211 240.307C380.156 242.856 377.152 245.455 374.186 248.093C330.38 287.044 291.235 331.754 244.674 360.295C220.805 374.937 193.368 387.999 162.133 377.819C124.707 365.654 94.0005 324.785 74.084 284.823C60.5245 257.623 50.0129 229.306 37.0738 202.219C30.9982 189.492 24.3756 177.036 16.6721 165.073C-32.3643 88.979 -119.409 47.6542 -194.04 49.0441C-268.67 50.434 -332.421 87.6757 -386.284 134.687M806.959 197.016C809.423 233.588 783.679 259.094 753.263 264.084C750.547 264.533 747.792 264.82 745.015 264.959C716.622 266.342 686.62 254.343 657.768 239.422C652.236 236.56 646.726 233.577 641.267 230.547C615.567 216.334 589.716 200.879 563.207 191.228C554.687 188.13 546.141 185.643 537.587 183.949C479.162 172.403 427.099 198.976 385.43 234.618C382.405 237.216 379.426 239.841 376.476 242.517C333.097 281.999 294.99 328 248.906 358.211C224.909 373.936 196.939 387.734 165.116 377.638C126.973 365.553 95.7798 323.722 75.8241 282.817C62.2434 254.981 51.8271 225.958 38.9104 198.176C32.8457 185.132 26.2213 172.345 18.4648 160.062C-30.8839 81.9497 -119.628 39.5512 -195.519 41.1079C-271.42 42.6765 -336.061 81.0545 -390.703 129.109M808.524 187.63C811.005 224.18 785.568 249.845 755.247 255.243C752.537 255.714 749.787 256.052 747.027 256.228C718.69 257.956 688.642 246.383 659.674 231.811C654.114 229.01 648.592 226.099 643.111 223.142C617.322 209.23 591.398 194.029 564.883 184.536C556.367 181.488 547.817 179.037 539.259 177.38C480.82 166.065 428.959 192.842 387.607 228.925C384.607 231.55 381.645 234.213 378.733 236.926C335.78 276.94 298.743 324.245 253.093 356.124C228.995 372.958 200.461 387.441 168.05 377.431C129.183 365.438 97.5037 322.645 77.5129 280.761C63.9076 252.263 53.5903 222.56 40.683 194.068C34.6252 180.682 27.9905 167.578 20.1812 154.974C-29.4798 74.8438 -119.914 31.3593 -197.076 33.0947C-274.238 34.8303 -339.777 74.3563 -395.198 123.454M810.099 178.234C812.62 214.76 787.457 240.584 757.236 246.364C754.537 246.874 751.799 247.236 749.033 247.45C720.757 249.546 690.648 238.386 661.574 224.14C655.997 221.398 650.448 218.56 644.96 215.664C619.082 202.03 593.069 187.094 566.565 177.773C558.049 174.786 549.516 172.372 540.954 170.752C482.504 159.693 430.838 186.625 389.806 223.174C386.822 225.836 383.898 228.537 381.012 231.275C338.484 271.821 302.541 320.431 257.312 353.967C233.112 371.909 204.02 387.101 171.007 377.164C131.416 365.263 99.2584 321.496 79.2284 278.669C65.5896 249.522 55.3796 219.127 42.4947 189.938C36.4478 176.235 29.7988 162.788 21.9492 149.877C-28.0155 67.7164 -120.157 23.1696 -198.581 25.072C-277.013 26.9862 -343.442 67.6484 -399.629 117.802M811.681 168.862C814.212 205.365 789.345 231.336 759.231 237.536C756.543 238.095 753.805 238.481 751.061 238.732C722.842 241.198 692.688 230.44 663.502 216.556C657.908 213.9 652.342 211.11 646.81 208.273C620.848 194.94 594.74 180.257 568.253 171.095C559.747 168.157 551.206 165.781 542.652 164.21C484.188 153.383 432.712 180.506 392.008 217.509C389.05 220.196 386.142 222.934 383.294 225.711C341.192 266.788 306.363 316.705 261.526 351.908C237.258 370.972 207.581 386.849 173.981 376.997C133.673 365.175 101.029 320.446 80.9596 276.676C67.3001 246.893 57.1845 215.792 44.331 185.896C38.2825 171.863 31.6443 158.098 23.7419 144.867C-26.5352 60.6884 -120.367 15.0557 -200.061 17.1369C-279.754 19.218 -347.082 61.0283 -404.047 112.224M813.246 159.477C815.805 195.944 791.228 222.086 761.198 228.681C758.516 229.265 755.8 229.713 753.045 229.976C724.881 232.799 694.678 222.466 665.385 208.908C659.769 206.311 654.181 203.582 648.643 200.818C622.591 187.787 596.411 173.358 569.912 164.356C561.407 161.454 552.887 159.138 544.324 157.58C485.845 146.984 434.568 174.287 394.172 211.743C391.23 214.467 388.361 217.244 385.529 220.059C343.845 261.678 310.147 312.877 265.702 349.747C241.365 369.933 211.095 386.507 176.894 376.727C135.861 364.997 102.74 319.295 82.6304 274.581C68.9379 244.149 58.9386 212.344 46.0862 181.752C40.0572 167.389 33.396 153.293 25.4407 139.742C-25.1487 53.5447 -120.68 6.83781 -201.635 9.08581C-282.598 11.3457 -350.829 54.2794 -408.56 106.531M814.81 150.093C817.632 189.799 788.557 217.45 755.057 221.246C721.567 225.03 685.021 210.225 650.493 193.401C615.964 176.578 581.195 157.238 546.005 150.999C483.268 139.895 429.044 172.318 387.807 214.47C346.549 256.621 314.006 309.128 269.919 347.651C245.527 368.972 214.648 386.204 179.858 376.51C138.102 364.872 104.502 318.195 84.3493 272.514C64.1959 226.833 52.253 178.087 27.2121 134.669C-23.6811 46.4424 -120.911 -1.33867 -203.136 1.08811C-285.361 3.51489 -354.49 47.5966 -413 100.892" stroke="url(#paint0_linear_81_139)" stroke-width="0.808805" stroke-miterlimit="10"/>
<defs>
<linearGradient id="paint0_linear_81_139" x1="670.235" y1="210.283" x2="-161.742" y2="374.932" gradientUnits="userSpaceOnUse">
<stop stop-color="#E1E6EF" stop-opacity="0.6"/>
<stop offset="0.543319" stop-color="#E1E6EF" stop-opacity="0"/>
<stop offset="1" stop-color="#E1E6EF" stop-opacity="0.6"/>
</linearGradient>
</defs>
</svg>
